<svg id="Header_Wishlist" data-name="Header Wishlist" xmlns="http://www.w3.org/2000/svg" width="34" height="34" viewBox="0 0 34 34">
  <rect id="Rectangle_2185" data-name="Rectangle 2185" width="34" height="34" rx="17" fill="#2b4052"/>
  <g id="Group_10899" data-name="Group 10899" transform="translate(-279 -124)">
    <g id="Path_2211" data-name="Path 2211" transform="translate(84.154 15.969)" fill="none">
      <path d="M219.649,122.346a4.279,4.279,0,0,0-2.576-3.026,3.967,3.967,0,0,0-4.735,1.393,4.059,4.059,0,0,0-4.778-1.393,4.274,4.274,0,0,0-2.575,3.026c-.335,1.46-.317,3.972,2.995,6.93l3.213,2.54a1.545,1.545,0,0,0,2.248,0l3.57-2.839C220.164,125.639,219.983,123.806,219.649,122.346Z" stroke="none"/>
      <path d="M 215.5627746582031 120.5317993164062 C 214.7714385986328 120.5317993164062 214.0393829345703 120.9177398681641 213.5543212890625 121.5906524658203 L 212.3457336425781 123.2673492431641 L 211.1263580322266 121.5984649658203 C 210.6407775878906 120.9338989257812 209.8685913085938 120.5371398925781 209.0607757568359 120.5371398925781 C 208.7385711669922 120.5371398925781 208.4142761230469 120.5988464355469 208.0978088378906 120.7202301025391 C 207.2965393066406 121.0281066894531 206.6487884521484 121.7972717285156 206.4470825195312 122.6818084716797 C 206.0429840087891 124.4426116943359 206.8838653564453 126.2749328613281 208.9464111328125 128.1283416748047 L 212.2064666748047 130.7062225341797 L 212.2798156738281 130.7834167480469 C 212.2971801757812 130.8016662597656 212.3046722412109 130.8016662597656 212.3160247802734 130.8016662597656 C 212.3281402587891 130.8016662597656 212.3361511230469 130.8016662597656 212.3546905517578 130.7821960449219 L 212.4261016845703 130.7072448730469 L 215.9918212890625 127.8713150024414 C 218.7090148925781 124.9663619995117 218.407470703125 123.6464691162109 218.1867980957031 122.6810913085938 C 217.9845428466797 121.7977905273438 217.3361206054688 121.0280914306641 216.5337524414062 120.7197875976562 C 216.2099914550781 120.5950622558594 215.8833618164062 120.5318298339844 215.5629730224609 120.5317993164062 L 215.5627746582031 120.5317993164062 M 215.5630493164062 119.0317993164062 C 216.0534973144531 119.0318450927734 216.5623168945312 119.1233520507812 217.0729217529297 119.3200378417969 C 218.3472595214844 119.8096923828125 219.3338775634766 120.9702758789062 219.6489562988281 122.3462829589844 C 219.9827117919922 123.8063888549805 220.1644592285156 125.6386795043945 217.0104217529297 128.9777526855469 L 213.4408111572266 131.8167877197266 C 213.1424407958984 132.1300048828125 212.7432556152344 132.3016662597656 212.3160247802734 132.3016662597656 C 211.8894805908203 132.3016662597656 211.4902801513672 132.1300048828125 211.1925659179688 131.8167877197266 L 207.9799194335938 129.2763977050781 C 204.6682281494141 126.3186187744141 204.6499938964844 123.8063888549805 204.9850921630859 122.3462829589844 C 205.2988586425781 120.9702758789062 206.2854614257812 119.8096923828125 207.5597839355469 119.3200378417969 C 209.4089660644531 118.6108703613281 211.3001556396484 119.2937927246094 212.3375091552734 120.7135314941406 C 213.0840148925781 119.6779174804688 214.2594451904297 119.0317077636719 215.5630493164062 119.0317993164062 Z" stroke="none" fill="#fff"/>
    </g>
  </g>
</svg>
